<svg width="60" height="60" viewBox="0 0 60 60" fill="none" xmlns="http://www.w3.org/2000/svg">
<rect width="60" height="60" fill="white"/>
<path d="M30 20C30 17.8783 29.1571 15.8434 27.6569 14.3431C26.1566 12.8429 24.1217 12 22 12H10V42H24C25.5913 42 27.1174 42.6321 28.2426 43.7574C29.3679 44.8826 30 46.4087 30 48M30 20V48M30 20C30 17.8783 30.8429 15.8434 32.3431 14.3431C33.8434 12.8429 35.8783 12 38 12H50V42H36C34.4087 42 32.8826 42.6321 31.7574 43.7574C30.6321 44.8826 30 46.4087 30 48" stroke="#1E1E1E" stroke-width="4" stroke-linecap="round" stroke-linejoin="round"/>
</svg>
